<svg xmlns="http://www.w3.org/2000/svg" viewBox="0 0 48 48">
  <rect width="48" height="48" rx="12" fill="#006B5E"/>
  <!-- Open book left page -->
  <path d="M9 15.5 C9 14.7 9.7 14 10.5 14 L21 14 C22.1 14 23 14.9 23 16 L23 34.5 C20 34 16.5 33.8 13 34.5 C11 35 9 35.8 9 35.8 Z" fill="white"/>
  <!-- Open book right page -->
  <path d="M39 15.5 C39 14.7 38.3 14 37.5 14 L27 14 C25.9 14 25 14.9 25 16 L25 34.5 C28 34 31.5 33.8 35 34.5 C37 35 39 35.8 39 35.8 Z" fill="white"/>
  <!-- Spine shadow -->
  <path d="M23 16 L23 34.5 L24 34.5 L25 34.5 L25 16 Z" fill="#004D45" opacity="0.3"/>
  <!-- Graduation cap diamond -->
  <polygon points="24,6 33,11.5 24,17 15,11.5" fill="#6CF8E2"/>
  <!-- Tassel stem -->
  <rect x="31.5" y="11.5" width="2" height="6" rx="1" fill="#6CF8E2"/>
  <!-- Tassel end -->
  <circle cx="32.5" cy="19" r="2.2" fill="#6CF8E2"/>
</svg>
